<?xml version="1.0" encoding="UTF-8"?>
<svg version="1.1" xmlns="http://www.w3.org/2000/svg" width="500" height="500">
<path d="M0 0 C165 0 330 0 500 0 C500 165 500 330 500 500 C335 500 170 500 0 500 C0 335 0 170 0 0 Z " fill="#FEFEFE" transform="translate(0,0)"/>
<path d="M0 0 C29.24625 -0.0825 58.4925 -0.165 88.625 -0.25 C102.42046631 -0.30462402 102.42046631 -0.30462402 116.49462891 -0.36035156 C127.82104492 -0.37841797 127.82104492 -0.37841797 133.14193726 -0.3817749 C136.81773761 -0.38546591 140.49330131 -0.40031115 144.16903687 -0.42230225 C179.88645459 -0.62631755 215.87838008 0.85058381 244 26 C245.26650391 27.12535156 245.26650391 27.12535156 246.55859375 28.2734375 C262.12247654 42.91343684 270.22936674 63.50701372 271.28125 84.63671875 C271.92816772 106.535667 267.05944706 125.84127603 253 143 C252.47019531 143.69222656 251.94039062 144.38445312 251.39453125 145.09765625 C245.0889123 152.92907929 236.17475743 159.93256809 227 164 C226.34 164 225.68 164 225 164 C225 164.66 225 165.32 225 166 C226.19625 166.33 227.3925 166.66 228.625 167 C250.13862587 174.28361001 266.98081824 191.28275583 277.13183594 211.19726562 C288.32901895 234.44810908 287.19010357 261.33912935 279.875 285.5625 C273.25612715 304.04834607 261.91852778 319.68588091 245 330 C243.95972656 330.72509766 243.95972656 330.72509766 242.8984375 331.46484375 C229.03476129 340.69912984 212.13494031 345.13115632 195.84827614 347.56588936 C193.91618666 347.86036242 191.987026 348.17460068 190.06102562 348.50657463 C180.30989758 350.08699934 170.83363164 350.27168312 160.97900391 350.22705078 C159.18509619 350.22643669 157.391188 350.22670751 155.5972805 350.2277813 C150.83484631 350.22822899 146.07251458 350.21671847 141.31010437 350.20256042 C136.82546703 350.19108916 132.34085341 350.19062979 127.85620117 350.18920898 C114.77912078 350.17875433 101.70205906 350.15083179 88.625 350.125 C59.37875 350.08375 30.1325 350.0425 0 350 C0 234.5 0 119 0 0 Z " fill="#000000" transform="translate(117,85)"/>
<path d="M0 0 C165 0 330 0 500 0 C500 165 500 330 500 500 C335 500 170 500 0 500 C0 335 0 170 0 0 Z M36 36 C36 177.24 36 318.48 36 464 C177.24 464 318.48 464 464 464 C464 322.76 464 181.52 464 36 C322.76 36 181.52 36 36 36 Z " fill="#FEFEFE" transform="translate(0,0)"/>
<path d="M0 0 C165 0 330 0 500 0 C500 165 500 330 500 500 C335 500 170 500 0 500 C0 335 0 170 0 0 Z M17 17 C17 165.5 17 314 17 467 C22.28 467 27.56 467 33 467 C33 472.28 33 477.56 33 483 C181.5 483 330 483 483 483 C483 334.5 483 186 483 33 C477.72 33 472.44 33 467 33 C467 27.72 467 22.44 467 17 C318.5 17 170 17 17 17 Z " fill="#FFFFFF" transform="translate(0,0)"/>
<path d="M0 0 C31.72125 -0.103125 63.4425 -0.20625 96.125 -0.3125 C106.08445801 -0.35802002 116.04391602 -0.40354004 126.30517578 -0.45043945 C138.61108398 -0.47302246 138.61108398 -0.47302246 144.39987183 -0.47721863 C148.38203301 -0.48181531 152.3638497 -0.50030008 156.34591675 -0.52787781 C198.53482558 -0.8066918 241.99478343 1.08160224 275 31 C275.48710449 31.43795898 275.97420898 31.87591797 276.47607422 32.32714844 C290.27513588 44.88948084 299.30827979 59.74081753 304.75 77.5625 C304.96116455 78.24683105 305.1723291 78.93116211 305.38989258 79.63623047 C310.45554029 97.14860109 310.7014189 120.70211021 305 138 C304.70198486 138.93295898 304.70198486 138.93295898 304.39794922 139.88476562 C299.85307978 153.87002678 293.35393965 165.94646995 283.50512695 176.91479492 C280.83038234 179.544263 280.83038234 179.544263 280 183 C281.57980635 184.36656253 283.21668653 185.66735132 284.875 186.9375 C295.45586757 195.45645491 303.15255789 205.37650001 310 217 C310.55558594 217.91910156 311.11117188 218.83820313 311.68359375 219.78515625 C320.20273638 235.16386827 322.5623162 251.32780443 322.5 268.625 C322.49767365 269.71110565 322.49767365 269.71110565 322.49530029 270.81915283 C322.44015053 279.69826393 321.78223658 288.27853907 320 297 C319.80897705 297.96631348 319.6179541 298.93262695 319.42114258 299.92822266 C314.1468767 325.3682445 298.24880996 348.2056696 277 363 C256.96424429 375.9074515 234.5461309 383.13925378 211 386 C210.36147158 386.08836844 209.72294315 386.17673689 209.06506538 386.26778316 C199.88776462 387.38923693 190.64189255 387.13192367 181.41357422 387.11352539 C179.39988265 387.11321872 177.38619098 387.11335312 175.37249947 387.11389065 C170.00072953 387.11411556 164.62898206 387.1083376 159.25721741 387.10128021 C154.20866834 387.09556731 149.16012462 387.09531611 144.11157227 387.09460449 C129.36604522 387.08936604 114.62052232 387.07540482 99.875 387.0625 C66.91625 387.041875 33.9575 387.02125 0 387 C0 259.29 0 131.58 0 0 Z M19 19 C19 134.5 19 250 19 369 C48.019375 369.0825 77.03875 369.165 106.9375 369.25 C116.0549585 369.28641602 125.17241699 369.32283203 134.56616211 369.36035156 C142.83520971 369.37374035 142.83520971 369.37374035 151.10426331 369.3817749 C154.74909985 369.38545817 158.39369647 369.40027113 162.03846741 369.42230225 C203.99601068 369.66445594 247.39362537 367.00231409 279.5234375 336.61328125 C297.91991809 317.67905738 304.4130969 292.46678177 304.23046875 266.6796875 C303.77759491 242.64253758 294.69904675 222.16787188 277.91796875 204.8515625 C270.22526166 197.62983748 254.97857328 185 244 185 C244 184.34 244 183.68 244 183 C244.87785156 182.74734375 245.75570312 182.4946875 246.66015625 182.234375 C252.15080644 180.20508206 256.40569906 176.55991155 261 173 C261.65484375 172.50242188 262.3096875 172.00484375 262.984375 171.4921875 C277.86629784 159.5456898 287.35095077 140.31628334 289.71875 121.6015625 C291.69548871 96.28832519 287.20122972 72.32492048 270.64794922 52.37011719 C260.31597913 40.60225156 247.41900425 32.87976961 233 27 C232.10667969 26.63261719 231.21335937 26.26523438 230.29296875 25.88671875 C207.71394306 17.52052754 183.96657889 18.45327075 160.29722595 18.59487915 C155.80515487 18.61796464 151.31317614 18.61874796 146.82104492 18.62158203 C133.75564311 18.64242224 120.69031601 18.69826705 107.625 18.75 C63.755625 18.87375 63.755625 18.87375 19 19 Z " fill="#BCBCBC" transform="translate(98,66)"/>
<path d="M0 0 C26.061813 -0.16043524 26.061813 -0.16043524 37.25390625 -0.1953125 C44.8619313 -0.21913413 52.46976203 -0.2471779 60.07763672 -0.30175781 C66.21794247 -0.34552865 72.35803953 -0.36920266 78.49848938 -0.37950897 C80.8298114 -0.38684461 83.16112327 -0.40116773 85.49235535 -0.42292023 C105.40803334 -0.60119701 124.63542229 0.4085414 139.95703125 14.75390625 C150.49620364 26.34095046 151.60153926 40.26842111 151.34375 55.21875 C150.77931169 67.09076906 144.76959946 76.57297111 136.4375 84.625 C125.00402558 94.16016856 111.24746828 96.33383703 96.8371582 96.22705078 C95.78216629 96.22734283 94.72717438 96.22763489 93.64021301 96.22793579 C90.19364864 96.22655546 86.74730731 96.21105584 83.30078125 96.1953125 C80.89511737 96.19157776 78.48945196 96.18873296 76.08378601 96.18673706 C69.7824781 96.17913696 63.48126384 96.15951984 57.17999268 96.1373291 C49.6032225 96.11317527 42.02642084 96.10407243 34.44962311 96.09242249 C22.96635047 96.07309318 11.48328291 96.03474518 0 96 C0 64.32 0 32.64 0 0 Z " fill="#BEBEBE" transform="translate(183,283)"/>
<path d="M0 0 C23.97615491 -0.12032643 23.97615491 -0.12032643 34.25 -0.14648438 C41.24160654 -0.1643703 48.23309444 -0.18545742 55.22460938 -0.22631836 C60.86563156 -0.25907765 66.50652639 -0.27688785 72.14763641 -0.28463173 C74.29245761 -0.2901456 76.43727237 -0.30091234 78.58203888 -0.31719017 C96.21703451 -0.44562611 114.2487744 0.62194294 128 13.25 C137.92738111 24.50940947 139.88844392 37.45173085 139 52 C137.50190372 64.02222266 131.48149683 75.00173772 122.03515625 82.62109375 C111.63570805 89.66716902 100.06555676 91.32800462 87.75512695 91.22705078 C86.31894264 91.22748886 86.31894264 91.22748886 84.85374451 91.22793579 C81.73182678 91.22655759 78.61015657 91.21106841 75.48828125 91.1953125 C73.30681997 91.19157699 71.125357 91.18873256 68.94389343 91.18673706 C63.23441848 91.17914296 57.52504714 91.15953118 51.81561279 91.1373291 C44.94802237 91.11315882 38.08039707 91.10406957 31.21277618 91.09242249 C20.80844564 91.07310401 10.40434195 91.03475193 0 91 C0 60.97 0 30.94 0 0 Z " fill="#BEBEBE" transform="translate(183,139)"/>
<path d="M0 0 C4.29 0 8.58 0 13 0 C13 146.52 13 293.04 13 444 C-133.52 444 -280.04 444 -431 444 C-431 439.71 -431 435.42 -431 431 C-288.77 431 -146.54 431 0 431 C0 288.77 0 146.54 0 0 Z " fill="#FEFEFE" transform="translate(467,36)"/>
<path d="M0 0 C148.5 0 297 0 450 0 C450 5.28 450 10.56 450 16 C455.28 16 460.56 16 466 16 C466 164.5 466 313 466 466 C317.5 466 169 466 16 466 C16 460.72 16 455.44 16 450 C10.72 450 5.44 450 0 450 C0 301.5 0 153 0 0 Z M3 3 C3 149.52 3 296.04 3 447 C7.29 447 11.58 447 16 447 C16 304.77 16 162.54 16 16 C158.23 16 300.46 16 447 16 C447 11.71 447 7.42 447 3 C300.48 3 153.96 3 3 3 Z M19 19 C19 160.24 19 301.48 19 447 C160.24 447 301.48 447 447 447 C447 305.76 447 164.52 447 19 C305.76 19 164.52 19 19 19 Z M450 19 C450 161.23 450 303.46 450 450 C307.77 450 165.54 450 19 450 C19 454.29 19 458.58 19 463 C165.52 463 312.04 463 463 463 C463 316.48 463 169.96 463 19 C458.71 19 454.42 19 450 19 Z " fill="#090909" transform="translate(17,17)"/>
<path d="M0 0 C20.86103739 -0.16043524 20.86103739 -0.16043524 29.83789062 -0.1953125 C35.933819 -0.21910998 42.02950426 -0.2470864 48.12524414 -0.30175781 C53.0465859 -0.34561386 57.96766649 -0.36921997 62.88918877 -0.37950897 C64.75523419 -0.38682969 66.62126732 -0.40112252 68.48719978 -0.42292023 C96.92618166 -0.74155618 96.92618166 -0.74155618 107.41796875 8.21875 C113.37560002 14.9266015 115.31728798 21.87951253 115.2109375 30.6640625 C114.72974117 38.27409336 113.44167021 45.92736405 107.92578125 51.5390625 C99.00790259 58.30434976 88.01240951 60.32886802 77.08374023 60.22705078 C76.24361893 60.22734283 75.40349762 60.22763489 74.53791809 60.22793579 C71.79470038 60.22655601 69.05176329 60.21105934 66.30859375 60.1953125 C64.39331714 60.19157755 62.47803861 60.18873286 60.5627594 60.18673706 C55.54701364 60.17913855 50.53138561 60.1595229 45.51568604 60.1373291 C39.48414289 60.11317088 33.45256015 60.10407167 27.42098236 60.09242249 C18.28057329 60.07309604 9.14042201 60.03474712 0 60 C0 40.2 0 20.4 0 0 Z " fill="#FEFEFE" transform="translate(201,301)"/>
<path d="M0 0 C17.44733206 -0.08021762 17.44733206 -0.08021762 24.95898438 -0.09765625 C30.0585554 -0.1095518 35.15805373 -0.1235317 40.25756836 -0.15087891 C44.37488406 -0.17281741 48.49212165 -0.18461228 52.60949135 -0.18975449 C54.17014099 -0.19341294 55.73078699 -0.20055534 57.29140282 -0.21146011 C86.73338389 -0.40875973 86.73338389 -0.40875973 96.65625 8.484375 C103.01194036 15.6530025 102.67039934 23.94024833 102.19091797 32.96484375 C101.61367786 39.11813474 99.35712217 44.07224284 94.9375 48.375 C84.55538922 55.81146139 73.6298508 55.54247668 61.42578125 55.390625 C59.64788962 55.38315028 57.86998966 55.37746318 56.09208679 55.37347412 C51.44772981 55.35831453 46.80388556 55.3191181 42.159729 55.2746582 C36.56874433 55.22623792 30.97758674 55.20812532 25.38645172 55.18484497 C16.92394625 55.14625959 8.46256232 55.06953943 0 55 C0 36.85 0 18.7 0 0 Z " fill="#FEFEFE" transform="translate(201,157)"/>
<path d="M0 0 C0.33 0 0.66 0 1 0 C1 148.17 1 296.34 1 449 C9.78117466 449.72152791 9.78117466 449.72152791 17 447 C17.10323075 444.73278406 17.13402397 442.46227768 17.1386652 440.19271755 C17.14150742 439.46893977 17.14434964 438.74516199 17.14727798 437.99945155 C17.15568382 435.54335998 17.15689776 433.08731522 17.15821838 430.63121033 C17.16277974 428.86493156 17.16777912 427.09865388 17.17318195 425.33237749 C17.18682111 420.45476563 17.19419804 415.57716077 17.20060861 410.69953477 C17.20858731 405.44864282 17.22229372 400.19776557 17.23532104 394.94688416 C17.25711985 385.84139909 17.27525183 376.73591255 17.29092598 367.63041496 C17.3135937 354.4652305 17.34174076 341.30006229 17.37124526 328.13489158 C17.41895926 306.77767902 17.46221308 285.42045984 17.50268555 264.06323242 C17.54202113 243.31094852 17.58344268 222.55867053 17.62768555 201.80639648 C17.63177196 199.88913941 17.63177196 199.88913941 17.63594092 197.93314987 C17.64962008 191.52123793 17.66334041 185.10932608 17.67708123 178.69741428 C17.7911058 125.46495515 17.89790188 72.23248325 18 19 C18.33 19 18.66 19 19 19 C19 160.24 19 301.48 19 447 C159.720354 446.88113861 159.720354 446.88113861 300.44067383 446.72973633 C327.59509277 446.71618652 327.59509277 446.71618652 340.28837585 446.71366882 C349.19493464 446.7108625 358.10143747 446.69982133 367.00798035 446.68327332 C377.26868712 446.66423734 387.52933991 446.65547803 397.7900645 446.65966515 C403.04388829 446.66147998 408.29759128 446.65851361 413.55139315 446.64235461 C418.29505188 446.6278526 423.03850338 446.62696599 427.78217125 446.63729668 C429.50381163 446.63857694 431.22546455 446.63470269 432.94708002 446.62535226 C435.28051777 446.61341611 437.61319726 446.61973718 439.94662189 446.63085651 C441.89515677 446.62914777 441.89515677 446.62914777 443.88305598 446.62740451 C447 447 447 447 450 450 C307.77 450 165.54 450 19 450 C19 454.29 19 458.58 19 463 C20.40752705 462.99829126 20.40752705 462.99829126 21.84348899 462.996548 C77.40756043 462.92935773 132.97162813 462.87797038 188.53573202 462.84680401 C195.20131165 462.84305171 201.8668912 462.83917224 208.5324707 462.83520508 C209.19578858 462.8348128 209.85910646 462.83442052 210.54252488 462.83401636 C232.05637156 462.82122418 253.57019465 462.7986842 275.08402703 462.77110834 C297.81171744 462.74202938 320.53939393 462.72401703 343.26710242 462.71773452 C356.88830657 462.7136098 370.50944302 462.7005633 384.13062634 462.6762506 C393.46005287 462.66044248 402.78944421 462.65558842 412.11888317 462.65949587 C417.50853549 462.66142512 422.8980692 462.65838364 428.28770065 462.64238358 C433.21559723 462.62786037 438.14329464 462.62699794 443.0712001 462.63730332 C444.85994011 462.63857831 446.6486922 462.63470874 448.43740819 462.62535045 C450.85743491 462.61341899 453.27672998 462.6197332 455.69674397 462.63085651 C456.4011923 462.62297547 457.10564063 462.61509443 457.83143589 462.60697457 C462.10981243 462.65182102 462.79761458 462.79761458 466 466 C317.5 466 169 466 16 466 C16 460.72 16 455.44 16 450 C10.72 450 5.44 450 0 450 C0 301.5 0 153 0 0 Z " fill="#131313" transform="translate(17,17)"/>
</svg>
